{
    "asset" : {
        "generator" : "Khronos glTF Blender I/O v1.7.33",
        "version" : "2.0"
    },
    "scene" : 0,
    "scenes" : [
        {
            "name" : "Scene",
            "nodes" : [
                0
            ]
        }
    ],
    "nodes" : [
        {
            "mesh" : 0,
            "name" : "Room1",
            "rotation" : [
                0.7071068286895752,
                0,
                0,
                0.7071068286895752
            ]
        }
    ],
    "materials" : [
        {
            "doubleSided" : true,
            "name" : "lambert27SG",
            "pbrMetallicRoughness" : {
                "baseColorFactor" : [
                    0.800000011920929,
                    0.800000011920929,
                    0.800000011920929,
                    1
                ],
                "metallicFactor" : 0,
                "roughnessFactor" : 0.5
            }
        },
        {
            "doubleSided" : true,
            "name" : "lambert28SG",
            "pbrMetallicRoughness" : {
                "baseColorFactor" : [
                    0.800000011920929,
                    0.800000011920929,
                    0.800000011920929,
                    1
                ],
                "metallicFactor" : 0,
                "roughnessFactor" : 0.5
            }
        },
        {
            "doubleSided" : true,
            "name" : "lambert21SG",
            "pbrMetallicRoughness" : {
                "baseColorFactor" : [
                    0.800000011920929,
                    0.800000011920929,
                    0.800000011920929,
                    1
                ],
                "metallicFactor" : 0,
                "roughnessFactor" : 0.5
            }
        },
        {
            "doubleSided" : true,
            "name" : "lambert29SG",
            "pbrMetallicRoughness" : {
                "baseColorFactor" : [
                    0.800000011920929,
                    0.800000011920929,
                    0.800000011920929,
                    1
                ],
                "metallicFactor" : 0,
                "roughnessFactor" : 0.5
            }
        },
        {
            "doubleSided" : true,
            "name" : "GlassMan_SG",
            "pbrMetallicRoughness" : {
                "baseColorFactor" : [
                    0.800000011920929,
                    0.800000011920929,
                    0.800000011920929,
                    1
                ],
                "metallicFactor" : 0,
                "roughnessFactor" : 0.5
            }
        },
        {
            "doubleSided" : true,
            "name" : "lambert30SG",
            "pbrMetallicRoughness" : {
                "baseColorFactor" : [
                    0.800000011920929,
                    0.800000011920929,
                    0.800000011920929,
                    1
                ],
                "metallicFactor" : 0,
                "roughnessFactor" : 0.5
            }
        },
        {
            "doubleSided" : true,
            "name" : "lambert33SG",
            "pbrMetallicRoughness" : {
                "baseColorFactor" : [
                    0.800000011920929,
                    0.800000011920929,
                    0.800000011920929,
                    1
                ],
                "metallicFactor" : 0,
                "roughnessFactor" : 0.5
            }
        },
        {
            "doubleSided" : true,
            "name" : "lambert31SG",
            "pbrMetallicRoughness" : {
                "baseColorFactor" : [
                    0.800000011920929,
                    0.800000011920929,
                    0.800000011920929,
                    1
                ],
                "metallicFactor" : 0,
                "roughnessFactor" : 0.5
            }
        },
        {
            "doubleSided" : true,
            "name" : "lambert32SG",
            "pbrMetallicRoughness" : {
                "baseColorFactor" : [
                    0.800000011920929,
                    0.800000011920929,
                    0.800000011920929,
                    1
                ],
                "metallicFactor" : 0,
                "roughnessFactor" : 0.5
            }
        }
    ],
    "meshes" : [
        {
            "name" : "Room1",
            "primitives" : [
                {
                    "attributes" : {
                        "POSITION" : 0,
                        "NORMAL" : 1,
                        "TEXCOORD_0" : 2
                    },
                    "indices" : 3,
                    "material" : 0
                },
                {
                    "attributes" : {
                        "POSITION" : 4,
                        "NORMAL" : 5,
                        "TEXCOORD_0" : 6
                    },
                    "indices" : 7,
                    "material" : 1
                },
                {
                    "attributes" : {
                        "POSITION" : 8,
                        "NORMAL" : 9,
                        "TEXCOORD_0" : 10
                    },
                    "indices" : 11,
                    "material" : 2
                },
                {
                    "attributes" : {
                        "POSITION" : 12,
                        "NORMAL" : 13,
                        "TEXCOORD_0" : 14
                    },
                    "indices" : 15,
                    "material" : 3
                },
                {
                    "attributes" : {
                        "POSITION" : 16,
                        "NORMAL" : 17,
                        "TEXCOORD_0" : 18
                    },
                    "indices" : 19,
                    "material" : 4
                },
                {
                    "attributes" : {
                        "POSITION" : 20,
                        "NORMAL" : 21,
                        "TEXCOORD_0" : 22
                    },
                    "indices" : 23,
                    "material" : 5
                },
                {
                    "attributes" : {
                        "POSITION" : 24,
                        "NORMAL" : 25,
                        "TEXCOORD_0" : 26
                    },
                    "indices" : 11,
                    "material" : 6
                },
                {
                    "attributes" : {
                        "POSITION" : 27,
                        "NORMAL" : 28,
                        "TEXCOORD_0" : 29
                    },
                    "indices" : 30,
                    "material" : 7
                },
                {
                    "attributes" : {
                        "POSITION" : 31,
                        "NORMAL" : 32,
                        "TEXCOORD_0" : 33
                    },
                    "indices" : 34,
                    "material" : 8
                }
            ]
        }
    ],
    "accessors" : [
        {
            "bufferView" : 0,
            "componentType" : 5126,
            "count" : 1064,
            "max" : [
                86.27001953125,
                344.71319580078125,
                0.10606899857521057
            ],
            "min" : [
                -278.27001953125,
                -104.71320343017578,
                -62
            ],
            "type" : "VEC3"
        },
        {
            "bufferView" : 1,
            "componentType" : 5126,
            "count" : 1064,
            "type" : "VEC3"
        },
        {
            "bufferView" : 2,
            "componentType" : 5126,
            "count" : 1064,
            "type" : "VEC2"
        },
        {
            "bufferView" : 3,
            "componentType" : 5123,
            "count" : 2304,
            "type" : "SCALAR"
        },
        {
            "bufferView" : 4,
            "componentType" : 5126,
            "count" : 1920,
            "max" : [
                81.87862396240234,
                341.30224609375,
                -3.0175750255584717
            ],
            "min" : [
                -273.8786315917969,
                -101.30223846435547,
                -58.74290466308594
            ],
            "type" : "VEC3"
        },
        {
            "bufferView" : 5,
            "componentType" : 5126,
            "count" : 1920,
            "type" : "VEC3"
        },
        {
            "bufferView" : 6,
            "componentType" : 5126,
            "count" : 1920,
            "type" : "VEC2"
        },
        {
            "bufferView" : 7,
            "componentType" : 5123,
            "count" : 4032,
            "type" : "SCALAR"
        },
        {
            "bufferView" : 8,
            "componentType" : 5126,
            "count" : 4,
            "max" : [
                86.23239135742188,
                345.8829040527344,
                -61.850589752197266
            ],
            "min" : [
                -279.72784423828125,
                -105.75173950195312,
                -61.850589752197266
            ],
            "type" : "VEC3"
        },
        {
            "bufferView" : 9,
            "componentType" : 5126,
            "count" : 4,
            "type" : "VEC3"
        },
        {
            "bufferView" : 10,
            "componentType" : 5126,
            "count" : 4,
            "type" : "VEC2"
        },
        {
            "bufferView" : 11,
            "componentType" : 5123,
            "count" : 6,
            "type" : "SCALAR"
        },
        {
            "bufferView" : 12,
            "componentType" : 5126,
            "count" : 72,
            "max" : [
                86.69364929199219,
                309.4250183105469,
                -56.66567611694336
            ],
            "min" : [
                -278.2371520996094,
                -69.42501068115234,
                -62
            ],
            "type" : "VEC3"
        },
        {
            "bufferView" : 13,
            "componentType" : 5126,
            "count" : 72,
            "type" : "VEC3"
        },
        {
            "bufferView" : 14,
            "componentType" : 5126,
            "count" : 72,
            "type" : "VEC2"
        },
        {
            "bufferView" : 15,
            "componentType" : 5123,
            "count" : 108,
            "type" : "SCALAR"
        },
        {
            "bufferView" : 16,
            "componentType" : 5126,
            "count" : 32,
            "max" : [
                81.24922180175781,
                340.9490966796875,
                -2.4752590656280518
            ],
            "min" : [
                -273.24920654296875,
                -100.94908905029297,
                -58.34195327758789
            ],
            "type" : "VEC3"
        },
        {
            "bufferView" : 17,
            "componentType" : 5126,
            "count" : 32,
            "type" : "VEC3"
        },
        {
            "bufferView" : 18,
            "componentType" : 5126,
            "count" : 32,
            "type" : "VEC2"
        },
        {
            "bufferView" : 19,
            "componentType" : 5123,
            "count" : 48,
            "type" : "SCALAR"
        },
        {
            "bufferView" : 20,
            "componentType" : 5126,
            "count" : 234,
            "max" : [
                86,
                344.617431640625,
                0
            ],
            "min" : [
                -278.81414794921875,
                -104.61741638183594,
                -62
            ],
            "type" : "VEC3"
        },
        {
            "bufferView" : 21,
            "componentType" : 5126,
            "count" : 234,
            "type" : "VEC3"
        },
        {
            "bufferView" : 22,
            "componentType" : 5126,
            "count" : 234,
            "type" : "VEC2"
        },
        {
            "bufferView" : 23,
            "componentType" : 5123,
            "count" : 552,
            "type" : "SCALAR"
        },
        {
            "bufferView" : 24,
            "componentType" : 5126,
            "count" : 4,
            "max" : [
                86.23239135742188,
                345.8829040527344,
                0
            ],
            "min" : [
                -279.72784423828125,
                -105.75173950195312,
                0
            ],
            "type" : "VEC3"
        },
        {
            "bufferView" : 25,
            "componentType" : 5126,
            "count" : 4,
            "type" : "VEC3"
        },
        {
            "bufferView" : 26,
            "componentType" : 5126,
            "count" : 4,
            "type" : "VEC2"
        },
        {
            "bufferView" : 27,
            "componentType" : 5126,
            "count" : 38378,
            "max" : [
                49.069252014160156,
                309.1933898925781,
                -51.72304153442383
            ],
            "min" : [
                -242.89756774902344,
                -69.61133575439453,
                -56.342159271240234
            ],
            "type" : "VEC3"
        },
        {
            "bufferView" : 28,
            "componentType" : 5126,
            "count" : 38378,
            "type" : "VEC3"
        },
        {
            "bufferView" : 29,
            "componentType" : 5126,
            "count" : 38378,
            "type" : "VEC2"
        },
        {
            "bufferView" : 30,
            "componentType" : 5123,
            "count" : 107334,
            "type" : "SCALAR"
        },
        {
            "bufferView" : 31,
            "componentType" : 5126,
            "count" : 1036,
            "max" : [
                68.68467712402344,
                307.980224609375,
                -56.024898529052734
            ],
            "min" : [
                -262.51300048828125,
                -68.3348617553711,
                -57.2658576965332
            ],
            "type" : "VEC3"
        },
        {
            "bufferView" : 32,
            "componentType" : 5126,
            "count" : 1036,
            "type" : "VEC3"
        },
        {
            "bufferView" : 33,
            "componentType" : 5126,
            "count" : 1036,
            "type" : "VEC2"
        },
        {
            "bufferView" : 34,
            "componentType" : 5123,
            "count" : 2052,
            "type" : "SCALAR"
        }
    ],
    "bufferViews" : [
        {
            "buffer" : 0,
            "byteLength" : 12768,
            "byteOffset" : 0
        },
        {
            "buffer" : 0,
            "byteLength" : 12768,
            "byteOffset" : 12768
        },
        {
            "buffer" : 0,
            "byteLength" : 8512,
            "byteOffset" : 25536
        },
        {
            "buffer" : 0,
            "byteLength" : 4608,
            "byteOffset" : 34048
        },
        {
            "buffer" : 0,
            "byteLength" : 23040,
            "byteOffset" : 38656
        },
        {
            "buffer" : 0,
            "byteLength" : 23040,
            "byteOffset" : 61696
        },
        {
            "buffer" : 0,
            "byteLength" : 15360,
            "byteOffset" : 84736
        },
        {
            "buffer" : 0,
            "byteLength" : 8064,
            "byteOffset" : 100096
        },
        {
            "buffer" : 0,
            "byteLength" : 48,
            "byteOffset" : 108160
        },
        {
            "buffer" : 0,
            "byteLength" : 48,
            "byteOffset" : 108208
        },
        {
            "buffer" : 0,
            "byteLength" : 32,
            "byteOffset" : 108256
        },
        {
            "buffer" : 0,
            "byteLength" : 12,
            "byteOffset" : 108288
        },
        {
            "buffer" : 0,
            "byteLength" : 864,
            "byteOffset" : 108300
        },
        {
            "buffer" : 0,
            "byteLength" : 864,
            "byteOffset" : 109164
        },
        {
            "buffer" : 0,
            "byteLength" : 576,
            "byteOffset" : 110028
        },
        {
            "buffer" : 0,
            "byteLength" : 216,
            "byteOffset" : 110604
        },
        {
            "buffer" : 0,
            "byteLength" : 384,
            "byteOffset" : 110820
        },
        {
            "buffer" : 0,
            "byteLength" : 384,
            "byteOffset" : 111204
        },
        {
            "buffer" : 0,
            "byteLength" : 256,
            "byteOffset" : 111588
        },
        {
            "buffer" : 0,
            "byteLength" : 96,
            "byteOffset" : 111844
        },
        {
            "buffer" : 0,
            "byteLength" : 2808,
            "byteOffset" : 111940
        },
        {
            "buffer" : 0,
            "byteLength" : 2808,
            "byteOffset" : 114748
        },
        {
            "buffer" : 0,
            "byteLength" : 1872,
            "byteOffset" : 117556
        },
        {
            "buffer" : 0,
            "byteLength" : 1104,
            "byteOffset" : 119428
        },
        {
            "buffer" : 0,
            "byteLength" : 48,
            "byteOffset" : 120532
        },
        {
            "buffer" : 0,
            "byteLength" : 48,
            "byteOffset" : 120580
        },
        {
            "buffer" : 0,
            "byteLength" : 32,
            "byteOffset" : 120628
        },
        {
            "buffer" : 0,
            "byteLength" : 460536,
            "byteOffset" : 120660
        },
        {
            "buffer" : 0,
            "byteLength" : 460536,
            "byteOffset" : 581196
        },
        {
            "buffer" : 0,
            "byteLength" : 307024,
            "byteOffset" : 1041732
        },
        {
            "buffer" : 0,
            "byteLength" : 214668,
            "byteOffset" : 1348756
        },
        {
            "buffer" : 0,
            "byteLength" : 12432,
            "byteOffset" : 1563424
        },
        {
            "buffer" : 0,
            "byteLength" : 12432,
            "byteOffset" : 1575856
        },
        {
            "buffer" : 0,
            "byteLength" : 8288,
            "byteOffset" : 1588288
        },
        {
            "buffer" : 0,
            "byteLength" : 4104,
            "byteOffset" : 1596576
        }
    ],
    "buffers" : [
        {
            "byteLength" : 1600680,
            "uri" : "data:application/octet-stream;base64,"
        }
    ]
}
